<?xml version="1.0" encoding="utf-8"?>
<!-- Generator: Adobe Illustrator 21.0.2, SVG Export Plug-In . SVG Version: 6.00 Build 0)  -->
<svg version="1.1" id="Layer_1" xmlns="http://www.w3.org/2000/svg" xmlns:xlink="http://www.w3.org/1999/xlink" x="0px" y="0px"
	 viewBox="0 0 1600 900" style="enable-background:new 0 0 1600 900;" xml:space="preserve">
<style type="text/css">
	[class^=bu] {fill:#FFF; opacity: 0; animation: fadeInOut 8s linear infinite; transform-origin:center;}
	.bu1 {animation-delay: 0s;}
	.bu2 {animation-delay: 1s;}
	.bu3 {animation-delay: 8s;}
	.bu4 {animation-delay: 0.6s;}
	.bu5 {animation-delay: 1s;}
	.bu6 {animation-delay: 5s;}
	.bu7 {animation-delay: 0.8s;}
	.bu8 {animation-delay: 2.5s;}
	.bu9 {animation-delay: 2s;}
	.bu10 {animation-delay: 0.2s;}
	.bu11 {animation-delay: 1s;}
	.bu12 {animation-delay: 8s;}
	.bu13 {animation-delay: 0.6s;}
	.bu14 {animation-delay: 5s;}
	.bu15 {animation-delay: 2.5s;}
	
	@keyframes fadeInOut {
		0% {opacity: 0;transform: scale(.4) translate(0, 0)}
		100% {opacity: .5;transform: scale(1) translate(0, -300px)}
	}
	
	#bird{
		 animation: bird 10s linear infinite; transform-origin:center;
	}
	
	@keyframes bird {
		0%{transform: rotate(0deg);}
		20%{transform: rotate(-8deg) translate(-50px, -20px)}
		60%{transform: rotate(-4deg) translate(30px, -10px)}
		80%{transform: rotate(2deg) translate(5px, -5px)}
		100%{transform: rotate(0deg); translate(0, 0)}
	}
	
	#boat{
		animation: boat 8s linear infinite; transform-origin:center;
	}
	
	@keyframes boat {
		0%{transform: rotate(0deg);}
		20%{transform: rotate(-1deg)}
		40%{transform: rotate(0deg)}
		60%{transform: rotate(2deg)}
		80%{transform: rotate(1deg)}
		100%{transform: rotate(0deg);}
	}
	
	#rod{
		animation: rod 8s linear infinite; transform-origin:center;
	}
	
	@keyframes rod {
		0%{transform: rotate(0deg);}
		20%{transform: rotate(-1deg) translate(0, 10px)}
		40%{transform: rotate(0deg)}
		60%{transform: rotate(2deg) translate(0, -10px)}
		80%{transform: rotate(1deg) translate(0, -5px)}
		100%{transform: rotate(0deg);}
	}
	
	#bait{
		animation: bait 8s linear infinite; transform-origin:center;
	}
	
	@keyframes bait {
		0%{transform: rotate(0deg);}
		20%{transform: rotate(-1deg) translate(0, 10px)}
		40%{transform: rotate(0deg)}
		60%{transform: rotate(1deg) translate(0, -15px)}
		80%{transform: rotate(0deg) translate(0, -5px)}
		100%{transform: rotate(0deg);}
	}
	
	.st0{fill:url(#SVGID_1_);}
	.st1{fill:#C6C5C7;}
	.st2{fill:#FFFFFF;}
	.st3{fill:#7B9AB8;}
	.st4{fill:#6384A4;}
	.st5{opacity:0.6;fill:#0CBBDF;}
	.st6{opacity:0.8;fill:#78C8DD;}
	.st7{opacity:0.6;fill:#C2E8F7;}
	.st8{fill-rule:evenodd;clip-rule:evenodd;fill:#FFFFFF;}
	.st9{fill:#999999;}
	.st10{fill:#91938F;}
	.st11{fill:#484340;}
	.st12{fill:#B8B8AC;}
	.st13{display:none;}
</style>
<radialGradient id="SVGID_1_" cx="800" cy="932.8167" r="1455.224" gradientTransform="matrix(0.9937 0 0 0.9093 5.0545 -398.2505)" gradientUnits="userSpaceOnUse">
	<stop  offset="0" style="stop-color:#6CCCE0"/>
	<stop  offset="0.2828" style="stop-color:#6CCAE0"/>
	<stop  offset="0.4264" style="stop-color:#6CC7E3"/>
	<stop  offset="0.5386" style="stop-color:#6AC2E8"/>
	<stop  offset="0.5674" style="stop-color:#69C0EC"/>
	<stop  offset="1" style="stop-color:#69C0EC"/>
</radialGradient>
<rect y="0" class="st0" width="1600" height="900"/>
	
<g id="boat">
	<path class="st1" d="M1229.2,59.1l-0.3,20.8c-0.1,3.5,0,6.9-0.2,10.4l-0.4,10.4l-0.4,10.4c-0.1,3.5-0.2,6.9-0.4,10.4l-1.2,20.8
		c-0.5,6.9-1.1,13.8-1.7,20.8c-0.3,3.5-0.7,6.9-1,10.4l-1.1,10.4c-0.3,3.5-0.9,6.9-1.3,10.3l-0.5,3.7c0.4,1,0.3,2.1-0.4,3l-0.5,3.7
		l-1.7,10.3l-0.8,5.1l-1,5.1c-1.3,6.8-2.8,13.6-4.5,20.4l-1.3,5c-0.4,1.7-1,3.3-1.5,5l-0.8,2.5l-0.9,2.5c-0.6,1.7-1.2,3.3-1.9,5
		l-2.3-1c0.6-1.5,1.2-3.2,1.7-4.8l0.8-2.5l0.7-2.5c0.4-1.7,1-3.3,1.4-5l1.3-5c1.6-6.7,3-13.5,4.2-20.3l0.9-5.1l0.8-5.1l1.5-10.2
		l0.3-2.3c-0.3-0.1-0.6-0.3-0.9-0.5c0,0,0,0,0,0l-0.1-0.1c-1.1-1-2.3-2.1-3.5-3c-1.2-1-2.5-2-3.8-3c-1.3-1-2.6-1.9-3.9-2.8l-2-1.4
		l-2-1.3c-5.4-3.6-11-6.9-16.7-10c-11.5-6.2-23.5-11.4-35.7-15.8c-12.3-4.4-24.9-8-37.6-11c-12.7-3-25.7-5-38.7-6.5
		c-26-3.1-52.4-3.3-78.6-1.6c-26.2,1.7-52.3,5.5-78,10.9c25.6-5.9,51.7-10.2,77.9-12.4c26.2-2.2,52.7-2.5,79,0.1
		c13.1,1.3,26.2,3.1,39.2,5.9c12.9,2.7,25.8,6.1,38.3,10.4c12.5,4.3,24.8,9.3,36.7,15.4c5.9,3,11.7,6.3,17.3,9.9l2.1,1.4l2.1,1.4
		c1.4,0.9,2.8,1.9,4.1,2.9c1.4,1,2.7,2,4,3c0.6,0.5,1.1,0.9,1.7,1.4l0.1-1.1c0.4-3.4,0.9-6.9,1.2-10.3l1-10.3
		c0.3-3.4,0.7-6.9,0.9-10.3c0.5-6.9,1-13.8,1.4-20.7l0.9-20.7c0.2-3.5,0.2-6.9,0.3-10.4l0.2-10.4l0.2-10.4c0.1-3.5,0-6.9,0-10.4
		l0-20.7c0-6.9-0.3-13.8-0.4-20.7l-0.2-10.4c-0.1-3.5-0.1-6.9-0.3-10.4l-0.8-20.7c-0.3-6.9-0.5-13.8-0.9-20.7
		c-0.8-13.8-2.1-27.5-3.7-41.2l6.7-0.8c1.5,13.8,2.6,27.7,3.3,41.6c0.3,7,0.5,13.9,0.7,20.8l0.6,20.8c0.1,3.5,0.1,6.9,0.2,10.4
		l0.1,10.4C1229.1,45.2,1229.3,52.1,1229.2,59.1z"/>
	<path class="st2" d="M1366.8,237.6c0,0,79.5-52.5,78-85.2c-0.7-16.3-34.8-47.5-116.4-44c-49,2.1-65.1,6.7-97,24.4
		c7.1-72.3,5.2-138.6-2.3-198.2h244.1c25.7,57.5,32.3,107.9,34.1,149.7C1512.2,198.5,1366.8,237.6,1366.8,237.6z"/>
	<path class="st2" d="M1217.8,195c-114.5-74.5-225-56.4-231.1-55.4c14.5-2.9,30.4-20.3,40.1-30.2c20.9-21.5,38.2-47.3,52.9-73.3
		c18.3-32.4,33-66.3,42.9-101.5h91.3C1224.9,51.1,1215.9,152.3,1217.8,195z"/>
	<path class="st3" d="M1326.1,173.5l-33.2,114.2c0,0-277.8,15-261.4,15.1C1047.7,302.8,1276.8,222.3,1326.1,173.5z"/>
	<path class="st4" d="M1414.8,217.1c0,0-2.1,134.5-245.6,162.2c-188.2,21.4-215.8-90.7-215.8-90.7S1251,314.4,1414.8,217.1z"/>
	<path class="st2" d="M1293.3,300.9l-8.7,4.6c0,0,2.9,0.3,4.2,1.1c-2.1,5.5-6.4,7.7-7.8,8.6c-1.2,0.8-4.6,1.6-8,1.9V291h10.8
		c0.9,0,1.6-0.7,1.6-1.6c0-0.9-0.7-1.6-1.6-1.6h-10.8V275c3.7-0.9,6.4-4.2,6.4-8.1c0-4.6-3.7-8.3-8.3-8.3c-4.6,0-8.3,3.7-8.3,8.3
		c0,3.9,2.7,7.2,6.4,8.1v12.8h-10.8c-0.9,0-1.6,0.7-1.6,1.6c0,0.9,0.7,1.6,1.6,1.6h10.8v26.1c-3.4-0.2-6.9-1.1-8.1-1.9
		c-1.4-0.9-5.7-3.1-7.8-8.6c1.4-0.8,4.2-1.1,4.2-1.1l-8.7-4.6l-1.1,9.6l2.6-3c0,0,1.8,9,13.4,13.7c3.6,1.4,5.5,1.9,7.2,4.8
		c0,0,0.1-0.1,0.2-0.1c0.1,0,0.1,0.1,0.2,0.1c1.7-2.9,3.6-3.4,7.2-4.8c11.6-4.7,13.4-13.7,13.4-13.7l2.6,3L1293.3,300.9z
		 M1267,266.8c0-2.3,1.9-4.1,4.1-4.1c2.3,0,4.1,1.9,4.1,4.1c0,2.3-1.8,4.1-4.1,4.1C1268.8,271,1267,269.1,1267,266.8z"/>
</g>
	
<g id="waves">
	<path class="st5" d="M1600,76.7V900H0V0h298.1C361,25.7,431,61,507.5,109.2c263.8,166.1,516.3,235.4,662.1,248.2
		c57.3,5,98.1,1.3,116.5-8.6c5.7-3.1,12.2-6.3,19.4-9.7C1375.9,305.9,1510,253.8,1600,76.7z"/>
	<path class="st6" d="M1600,214.2V900H0V257.4c27.8-31.2,64.2-47.9,102.6-56.7c66.3-15.2,144.7-24.3,221.8-25.2
		c67.2-0.8,133.5,4.7,190.2,17.9c205.5,47.8,395.8,165.7,608.3,165.4c15.5,0,31.1-0.5,46.7-1.4c45.5-2.7,91-9,135.9-18.3
		c65.4-13.6,129.7-33.6,190.8-58.1C1528.9,268,1564.5,243.4,1600,214.2z"/>
	<path class="st7" d="M1600,230.1V900H0V195.9c101.4-57.7,217.5-49.8,324.4-20.4c86.6,23.8,167.2,61.7,229.1,90.4
		c156.9,72.6,365.4,141.6,610.7,141.6C1367.5,407.4,1507.7,322.4,1600,230.1z"/>
</g>
	
<path id="bird" class="st8" d="M636,74.1c-5.6-4.8-12.4-4.5-15.6-7.7c-1.6-1.6-2-3.3-3.8-5c-1.2-1.1-2-2-3.2-3.2
	c-0.7-0.5-1.4-0.6-2-0.9c0.6-0.2,1.3-0.1,1.9,0c0.9-1.6,3.7-1.6,4-1.4c-5-13.2-11.9-24.1-36.1-24.8c20.2-3.2,27.4-2.4,34.2,2.1
	c7.7,5.2,6.1,14.7,8.6,19.2c4.8-7.1,7.9-18.7,15.7-24.1c9.1-6.3,30.8-4.9,58.4,1.9c-24.6,8.2-52.7-3.6-68.7,27.2
	c-1.5,2.9,0.4,9.2,4.2,10.9c1.6,0.7,3.7,1.2,5.8,2c1.6,0.6,2.4,1.1,2.5,1.4C642.1,73,637.1,73.2,636,74.1z"/>
	
<path id="rod" class="st9" d="M988,289.8c-1.1,0.8-2.7,0.6-3.5-0.5c0,0,0,0,0,0l-0.1-0.1l-5.8-7.9c-1.9-2.6-3.8-5.3-5.9-7.8
	l-6.1-7.7l-1.5-1.9l-1.6-1.9l-3.2-3.7c-8.5-9.9-17.8-19.2-27.4-28.1c-4.9-4.4-9.7-8.8-14.8-12.9c-5-4.3-10.3-8.2-15.5-12.2
	c-10.6-7.7-21.5-15.1-32.8-21.8c-22.6-13.3-46.5-24.6-71.2-33.4c-12.4-4.4-24.9-8.4-37.7-11.6c-6.4-1.7-12.8-3.1-19.2-4.4
	c-5.8-1.2-11.7-2.2-17.6-2.9c-0.4,0.8-1.5,1.3-2.8,1.3c-1.7,0-3-0.9-3-2s1.3-2,3-2c1.5,0,2.8,0.8,3,1.7c12.5,1.4,24.8,3.9,37,6.8
	c12.8,3.1,25.5,6.8,38,11.1c25,8.6,49.1,19.6,72.1,32.7c11.5,6.6,22.5,13.9,33.3,21.5c5.3,4,10.7,7.8,15.8,12.1
	c5.2,4.1,10.2,8.5,15.2,12.8c9.8,8.9,19.3,18.2,28.1,28.1l3.3,3.7l1.7,1.8l1.6,1.9l6.3,7.7c2.2,2.5,4.1,5.2,6.1,7.8l6,8
	C989.3,287.4,989.1,289,988,289.8z"/>
	
<g id="bait">
	<g id="hook">
		<path class="st10" d="M727.7,657.6c-0.3,0.4-0.7,0.7-1.2,1l1.6,34.8c0.2,5.4,5.9,9,11.9,12.8c3,1.9,6,3.9,8.5,6.2
			c6.3,5.7,9.9,13.5,10.3,22c0.8,17.5-12.8,32.3-30.3,33.1c-17.5,0.8-32.3-12.8-33.1-30.3c-0.1-1.2,0.6-2.2,1.7-2.7
			c1.1-0.5,2.3-0.3,3.2,0.5l8,7.3c1.2,1.1,1.3,2.9,0.2,4.1c-1.1,1.2-2.9,1.3-4.1,0.2l-1.5-1.3c3.9,10.1,14,17,25.4,16.5
			c14.3-0.6,25.4-12.8,24.8-27.1c-0.3-6.9-3.3-13.3-8.4-18c-2.1-1.9-4.9-3.7-7.8-5.6c-6.6-4.3-14.2-9.1-14.5-17.4l-1.6-34.8
			c-0.4-0.2-0.9-0.5-1.2-0.9c-2.4-2.2-2.5-5.8-0.4-8.2c2.2-2.4,5.8-2.5,8.2-0.4C729.7,651.6,729.9,655.2,727.7,657.6z"/>
		
			<ellipse transform="matrix(0.6749 -0.7379 0.7379 0.6749 -247.1691 746.3699)" class="st11" cx="723.4" cy="653.7" rx="1.4" ry="1.4"/>
		<g>
			<path class="st12" d="M728.5,767.5c-17.5,0.8-32.3-12.8-33.1-30.3c0-1,0.5-2,1.3-2.6c0.9,0.5,1.5,1.4,1.6,2.4
				c0.7,15.9,14.2,28.2,30.1,27.5c15.9-0.7,28.2-14.2,27.5-30.1c-0.1-1.5,1.1-2.9,2.6-3c0.1,0.9,0.2,1.9,0.3,2.9
				C759.6,751.8,746,766.7,728.5,767.5z"/>
			<path class="st12" d="M723.7,658.7l1.6,34.8c0.3,6.8,6.9,11.1,13.2,15.1c1.9,1.2,3.6,2.3,5.3,3.5c1.3,0.9,1.5,2.8,0.4,4l0,0
				c-2-1.8-4.6-3.4-7.2-5.1c-6.6-4.3-14.2-9.1-14.5-17.4l-1.6-34.8c-0.4-0.2-0.9-0.5-1.2-0.9c-0.4-0.3-0.7-0.7-0.9-1.1c0,0,0,0,0,0
				c0.5-0.6,1.2-0.9,2-1C722.3,655.9,723.6,657.1,723.7,658.7z"/>
		</g>
	</g>
	<path id="rope" class="st9" d="M723.8,131.4l1.9,520c0,1.3-1.1,2.4-2.4,2.4c-1.3,0-2.4-1.1-2.4-2.4v0l1.9-520
		c0-0.3,0.2-0.5,0.5-0.5C723.5,130.9,723.7,131.1,723.8,131.4z"/>
</g>
	
<g id="bubbles">
	<circle class="bu1" cx="138.9" cy="525.1" r="18.2"/>
	<circle class="bu2" cx="160.7" cy="577.7" r="5.4"/>
	<circle class="bu3" cx="1351.3" cy="720.3" r="13.6"/>
	<circle class="bu4" cx="951" cy="699.6" r="10.1"/>
	<circle class="bu5" cx="1052" cy="755.9" r="11.2"/>
	<circle class="bu6" cx="1083.4" cy="706.7" r="10.5"/>
	<circle class="bu7" cx="474.6" cy="949" r="13.4"/>
	<circle class="bu8" cx="1464.7" cy="873.2" r="4.5"/>
	<circle class="bu9" cx="370" cy="845.1" r="7.5"/>
	<circle class="bu10" cx="1186.8" cy="816.4" r="7.5"/>
	<circle class="bu11" cx="1310.8" cy="1007.7" r="16.4"/>
	<circle class="bu12" cx="876.2" cy="744" r="17.2"/>
	<circle class="bu13" cx="784.3" cy="697.7" r="11.2"/>
	<circle class="bu14" cx="693.9" cy="705.9" r="7.5"/>
	<circle class="bu15" cx="1237.6" cy="828.8" r="12.7"/>
	<circle class="bu1" cx="987" cy="1010" r="12.7"/>
	<circle class="bu2" cx="993" cy="878.3" r="6"/>
	<circle class="bu3" cx="1065.1" cy="935.6" r="6"/>
	<circle class="bu4" cx="1206.4" cy="730.9" r="6"/>
	<circle class="bu5" cx="850.7" cy="861.3" r="14.9"/>
	<circle class="bu6" cx="743.9" cy="823.2" r="5.2"/>
	<circle class="bu7" cx="56" cy="628.2" r="24.6"/>
	<circle class="bu8" cx="15.7" cy="939.5" r="15.7"/>
	<circle class="bu9" cx="206.9" cy="691" r="9"/>
	<circle class="bu10" cx="166.8" cy="847.6" r="13.4"/>
	<circle class="bu12" cx="1489.7" cy="807.9" r="16.8"/>
	<circle class="bu13" cx="606.1" cy="734.7" r="10.1"/>
	<circle class="bu13" cx="308.1" cy="995.9" r="25.8"/>
	<circle class="bu14" cx="514.4" cy="810.6" r="12.3"/>
	<circle class="bu15" cx="304.4" cy="620.6" r="12.3"/>
	<circle class="bu1" cx="400" cy="725.7" r="7.8"/>
	<circle class="bu2" cx="267.7" cy="890.3" r="7.8"/>
	<circle class="bu3" cx="574" cy="861.9" r="14.6"/>
	<circle class="bu4" cx="1424.6" cy="853.8" r="7.5"/>
	<circle class="bu5" cx="1524.9" cy="949" r="7.5"/>
	<circle class="bu6" cx="1178.4" cy="890" r="16.8"/>
	<circle class="bu7" cx="329.7" cy="535.7" r="7.5"/>
	<circle class="bu8" cx="34.4" cy="898.2" r="6.7"/>
</g>
</svg>
