<?xml version="1.0" encoding="utf-8"?>
<svg version="1.1" id="fish" xmlns="http://www.w3.org/2000/svg" xmlns:xlink="http://www.w3.org/1999/xlink" x="0px" y="0px"
	 viewBox="0 0 1600 900" style="enable-background:new 0 0 1600 900;" xml:space="preserve">
<style type="text/css">
	[class^=ff] {
		 animation: swim 40s linear infinite; transform-origin:center;
	}
	.ff1 {animation-delay: 0s;}
	.ff2 {animation-delay: 0.5s;}
	.ff3 {animation-delay: 0.8s;}
	.ff4 {animation-delay: 1.2s;}
	.ff5 {animation-delay: 4.5s;}
	.ff6 {animation-delay: 4s;}
	.ff7 {animation-delay: 4.4s;}
	.ff8 {animation-delay: 4.9s;}
	.ff9 {animation-delay: 5s;}
	.ff10 {animation-delay: 6s;}
	.ff11 {animation-delay: 7s;}
	.ff12 {animation-delay: 7.5s;}
	.ff13 {animation-delay: 8s;}
	.ff14 {animation-delay: 8.2s;}
	.ff15 {animation-delay: 8.6s;}
	.ff16 {animation-delay: 9s;}
	.ff17 {animation-delay: 10s;}
	.ff18 {animation-delay: 11s;}
	.ff19 {animation-delay: 11.4s;}
	.ff20 {animation-delay: 11.9s;}
	.ff21 {animation-delay: 12.5s;}
	.ff22 {animation-delay: 13s;}
	.ff23 {animation-delay: 13.3s;}

	
	@keyframes swim {
		0%{opacity: 0; transform: rotate(0deg) translate(-500px, 0);}
		10%{opacity: 1; transform: rotate(1deg)}
		25%{opacity: 1; transform: rotate(-5deg) translate(1000px, 0)}
		50%{opacity: 1; transform: rotate(0deg) translate(2500px, 0)}
		75%{opacity: 0; transform: rotate(10deg) translate(3500px, 0)}
		100%{opacity: 0; transform: rotate(0deg); translate(4500px, 0)}
	}
	
	.st0{opacity:0; fill:#3771B8;}
	.st1{opacity:0; fill:#3771B8;}
	.st2{opacity:0; fill:#DF8D26;}
	.st3{opacity:0; fill:#3771B8;}
	.st4{opacity:0; fill:#BCB080;}
	.st5{opacity:0; fill:#D0C22B;}
	
	#fisho1{
		opacity:0.5;
	}
	
	#fisho2{
		opacity:0.3;
	}
</style>
<g id="fisho2">
	<path class="ff1 st0" d="M-67.5,218.1c6.1,11.4,1.2,19.5,0,22.8c10.2-0.9,13.2-3.5,16.6-5.8c-1.2,9.3-3.9,17.3-6.5,21.2
		c18.3,0.1,34.5-9.7,38.7-13.4s4.8-4.6,6.2-6.6c1.5-2.1,4.1-2.4,5.8-0.9c2.2,2,5.4-1.1,3-3.4c-1.4-1.4-3.5-2-4.4-2.3
		c1.7-0.4,5.7-1.5,6.5-1.7c2.1-0.6,3.3-5.4-1.2-5.8c-4.6-0.5-5.4,0-12.4-6.7c-6.5-6.1-19-13.2-42.2-12.8c3.7,6,6.4,16.9,6.5,21.2
		C-56.5,219.4-64.5,218.1-67.5,218.1z"/>
	<path class="ff2 st0" d="M-67.5,130.3c4.4,8.2,0.9,14,0,16.4c7.3-0.6,9.5-2.5,11.9-4.2c-0.8,6.7-2.8,12.4-4.7,15.2
		c13.1,0.1,24.8-7,27.8-9.7s3.5-3.3,4.4-4.7c1-1.5,3-1.7,4.2-0.7c1.6,1.4,3.9-0.8,2.2-2.4c-1-1-2.5-1.5-3.2-1.6
		c1.2-0.3,4.1-1,4.7-1.2c1.5-0.4,2.4-3.9-0.8-4.2c-3.3-0.3-3.9,0-8.9-4.8c-4.6-4.4-13.6-9.5-30.3-9.2c2.7,4.3,4.6,12.1,4.7,15.2
		C-59.6,131.3-65.3,130.4-67.5,130.3z"/>
	<path class="ff3 st0" d="M-67.5,210.7c4.4,8.2,0.9,14,0,16.4c7.3-0.6,9.5-2.5,11.9-4.2c-0.8,6.7-2.8,12.4-4.7,15.2
		c13.1,0.1,24.8-7,27.8-9.7s3.5-3.3,4.4-4.7c1-1.5,3-1.7,4.2-0.7c1.6,1.4,3.9-0.8,2.2-2.4c-1-1-2.5-1.5-3.2-1.6
		c1.2-0.3,4.1-1,4.7-1.2c1.5-0.4,2.4-3.9-0.8-4.2c-3.3-0.3-3.9,0-8.9-4.8c-4.6-4.4-13.6-9.5-30.3-9.2c2.7,4.3,4.6,12.1,4.7,15.2
		C-59.6,211.7-65.3,210.8-67.5,210.7z"/>
	<path class="ff4 st0" d="M-67.5,280.5c5,9.4,1,16,0,18.7c8.4-0.7,10.8-2.9,13.6-4.8c-1,7.6-3.2,14.2-5.3,17.4c15,0.1,28.3-7.9,31.7-11
		c3.4-3.1,3.9-3.8,5.1-5.4c1.2-1.7,3.4-2,4.8-0.8c1.8,1.6,4.4-0.9,2.5-2.8c-1.2-1.1-2.9-1.7-3.6-1.9c1.4-0.3,4.6-1.2,5.4-1.4
		c1.7-0.5,2.7-4.4-1-4.8c-3.8-0.4-4.4,0-10.2-5.5c-5.3-5-15.6-10.8-34.6-10.5c3,4.9,5.3,13.8,5.3,17.4
		C-58.5,281.6-65,280.6-67.5,280.5z"/>
</g>
<g id="fisho1">
	<path class="ff5 st1" d="M-67.5,472.9c5,9.4,1,16,0,18.7c8.4-0.7,10.8-2.9,13.6-4.8c-1,7.6-3.2,14.2-5.3,17.4c15,0.1,28.3-7.9,31.7-11
		c3.4-3.1,3.9-3.8,5.1-5.4c1.2-1.7,3.4-2,4.8-0.8c1.8,1.6,4.4-0.9,2.5-2.8c-1.2-1.1-2.9-1.7-3.6-1.9c1.4-0.3,4.6-1.2,5.4-1.4
		c1.7-0.5,2.7-4.4-1-4.8c-3.8-0.4-4.4,0-10.2-5.5c-5.3-5-15.6-10.8-34.6-10.5c3,4.9,5.3,13.8,5.3,17.4
		C-58.5,474-65,472.9-67.5,472.9z"/>
	<path class="ff6 st1" d="M-67.5,410.4c6.1,11.4,1.2,19.5,0,22.8c10.2-0.9,13.2-3.5,16.6-5.8c-1.2,9.3-3.9,17.3-6.5,21.2
		c18.3,0.1,34.5-9.7,38.7-13.4s4.8-4.6,6.2-6.6c1.5-2.1,4.1-2.4,5.8-0.9c2.2,2,5.4-1.1,3-3.4c-1.4-1.4-3.5-2-4.4-2.3
		c1.7-0.4,5.7-1.5,6.5-1.7c2.1-0.6,3.3-5.4-1.2-5.8c-4.6-0.5-5.4,0-12.4-6.7c-6.5-6.1-19-13.2-42.2-12.8c3.7,6,6.4,16.9,6.5,21.2
		C-56.5,411.8-64.5,410.5-67.5,410.4z"/>
	<path class="ff7 st1" d="M-67.5,322.7c4.4,8.2,0.9,14,0,16.4c7.3-0.6,9.5-2.5,11.9-4.2c-0.8,6.7-2.8,12.4-4.7,15.2
		c13.1,0.1,24.8-7,27.8-9.7c3-2.7,3.5-3.3,4.4-4.7c1-1.5,3-1.7,4.2-0.7c1.6,1.4,3.9-0.8,2.2-2.4c-1-1-2.5-1.5-3.2-1.6
		c1.2-0.3,4.1-1,4.7-1.2c1.5-0.4,2.4-3.9-0.8-4.2c-3.3-0.3-3.9,0-8.9-4.8c-4.6-4.4-13.6-9.5-30.3-9.2c2.7,4.3,4.6,12.1,4.7,15.2
		C-59.6,323.7-65.3,322.7-67.5,322.7z"/>
	<path class="ff8 st1" d="M-67.5,403.1c4.4,8.2,0.9,14,0,16.4c7.3-0.6,9.5-2.5,11.9-4.2c-0.8,6.7-2.8,12.4-4.7,15.2
		c13.1,0.1,24.8-7,27.8-9.7c3-2.7,3.5-3.3,4.4-4.7c1-1.5,3-1.7,4.2-0.7c1.6,1.4,3.9-0.8,2.2-2.4c-1-1-2.5-1.5-3.2-1.6
		c1.2-0.3,4.1-1,4.7-1.2c1.5-0.4,2.4-3.9-0.8-4.2c-3.3-0.3-3.9,0-8.9-4.8c-4.6-4.4-13.6-9.5-30.3-9.2c2.7,4.3,4.6,12.1,4.7,15.2
		C-59.6,404.1-65.3,403.1-67.5,403.1z"/>
</g>
<path class="ff9 st2" d="M-67.5,884.9c6.1,11.4,1.2,19.5,0,22.8c10.2-0.9,13.2-3.5,16.6-5.8c-1.2,9.3-3.9,17.3-6.5,21.2
	c18.3,0.1,34.5-9.7,38.7-13.4s4.8-4.6,6.2-6.6c1.5-2.1,4.1-2.4,5.8-0.9c2.2,2,5.4-1.1,3-3.4c-1.4-1.4-3.5-2-4.4-2.3
	c1.7-0.4,5.7-1.5,6.5-1.7c2.1-0.6,3.3-5.4-1.2-5.8c-4.6-0.5-5.4,0-12.4-6.7c-6.5-6.1-19-13.2-42.2-12.8c3.7,6,6.4,16.9,6.5,21.2
	C-56.5,886.3-64.5,885-67.5,884.9z"/>
<path class="ff11 st3" d="M-67.5,815.8c5.6,10.5,1.1,17.9,0,20.9c9.4-0.8,12.1-3.2,15.2-5.3c-1.1,8.6-3.6,15.9-6,19.4
	c16.7,0.1,31.6-8.9,35.5-12.3s4.4-4.2,5.7-6c1.3-1.9,3.8-2.2,5.3-0.9c2,1.8,5-1,2.8-3.1c-1.3-1.3-3.2-1.9-4-2.1
	c1.5-0.4,5.2-1.3,6-1.6c1.9-0.6,3-4.9-1.1-5.3c-4.3-0.4-4.9,0-11.4-6.1c-5.9-5.6-17.4-12.1-38.7-11.8c3.4,5.5,5.9,15.5,6,19.4
	C-57.4,817-64.7,815.9-67.5,815.8z"/>
<path class="ff12 st4" d="M-67.5,797.3c5.1,9.5,1,16.3,0,19.1c8.5-0.8,11-2.9,13.8-4.9c-1,7.8-3.3,14.4-5.4,17.7
	c15.2,0.1,28.8-8.1,32.3-11.2s4-3.8,5.2-5.5c1.2-1.7,3.5-2,4.9-0.8c1.9,1.6,4.5-0.9,2.5-2.8c-1.2-1.2-2.9-1.7-3.7-1.9
	c1.4-0.3,4.7-1.2,5.5-1.4c1.7-0.5,2.7-4.5-1-4.8c-3.9-0.4-4.5,0-10.4-5.6c-5.4-5.1-15.9-11-35.2-10.7c3.1,5,5.4,14.1,5.4,17.7
	C-58.3,798.4-65,797.3-67.5,797.3z"/>
<path class="ff13 st3" d="M-67.5,886.3c5.4,10.1,1,17.2,0,20.1c9-0.8,11.7-3.1,14.6-5.1c-1,8.2-3.5,15.2-5.7,18.7
	c16.1,0.1,30.4-8.5,34.1-11.8c3.7-3.3,4.2-4.1,5.5-5.8c1.3-1.8,3.6-2.1,5.1-0.8c2,1.7,4.8-0.9,2.6-3c-1.3-1.2-3.1-1.8-3.9-2
	c1.5-0.4,5-1.3,5.8-1.5c1.8-0.5,2.9-4.7-1-5.1c-4.1-0.4-4.7,0-10.9-5.9c-5.7-5.4-16.7-11.6-37.2-11.3c3.3,5.3,5.7,14.8,5.7,18.7
	C-57.8,887.5-64.8,886.3-67.5,886.3z"/>
<path class="ff14 st3" d="M-67.5,826.7c4.9,9.1,0.9,15.5,0,18.2c8.2-0.7,10.5-2.8,13.2-4.6c-0.9,7.4-3.1,13.8-5.2,16.9
	c14.6,0.1,27.5-7.7,30.8-10.7c3.3-3,3.8-3.7,4.9-5.2c1.2-1.6,3.3-1.9,4.6-0.8c1.8,1.6,4.3-0.8,2.4-2.7c-1.2-1.1-2.8-1.6-3.5-1.8
	c1.3-0.3,4.5-1.2,5.2-1.4c1.7-0.5,2.6-4.3-0.9-4.6c-3.7-0.4-4.3,0-9.9-5.3c-5.2-4.9-15.2-10.5-33.7-10.2c3,4.8,5.1,13.4,5.2,16.9
	C-58.7,827.8-65.1,826.7-67.5,826.7z"/>
<path class="ff15 st5" d="M-67.5,798.7c3.4,6.4,0.7,10.8,0,12.7c5.7-0.5,7.4-1.9,9.2-3.2c-0.7,5.2-2.2,9.6-3.6,11.8
	c10.2,0.1,19.2-5.4,21.5-7.5s2.7-2.6,3.4-3.7c0.8-1.1,2.3-1.3,3.2-0.5c1.2,1.1,3-0.6,1.7-1.9c-0.8-0.8-2-1.1-2.5-1.3
	c0.9-0.2,3.1-0.8,3.6-1c1.2-0.3,1.8-3-0.7-3.2c-2.6-0.3-3,0-6.9-3.7c-3.6-3.4-10.6-7.4-23.5-7.1c2.1,3.3,3.6,9.4,3.6,11.8
	C-61.3,799.4-65.8,798.7-67.5,798.7z"/>
<path class="ff16 st3" d="M-67.5,840c3.4,6.4,0.7,10.8,0,12.7c5.7-0.5,7.4-1.9,9.2-3.2c-0.7,5.2-2.2,9.6-3.6,11.8
	c10.2,0.1,19.2-5.4,21.5-7.5s2.7-2.6,3.4-3.7c0.8-1.1,2.3-1.3,3.2-0.5c1.2,1.1,3-0.6,1.7-1.9c-0.8-0.8-2-1.1-2.5-1.3
	c0.9-0.2,3.1-0.8,3.6-1c1.2-0.3,1.8-3-0.7-3.2c-2.6-0.3-3,0-6.9-3.7c-3.6-3.4-10.6-7.4-23.5-7.1c2.1,3.3,3.6,9.4,3.6,11.8
	C-61.3,840.8-65.8,840.1-67.5,840z"/>
<path class="ff17 st5" d="M-67.5,799.4c3.7,6.9,0.7,11.7,0,13.7c6.2-0.5,8-2.1,10-3.5c-0.7,5.6-2.4,10.4-3.9,12.8
	c11,0.1,20.8-5.8,23.3-8.1s2.9-2.8,3.7-3.9c0.9-1.2,2.5-1.5,3.5-0.6c1.3,1.2,3.3-0.6,1.8-2c-0.9-0.8-2.1-1.2-2.7-1.4
	c1-0.2,3.4-0.9,3.9-1c1.3-0.4,2-3.2-0.7-3.5c-2.8-0.3-3.2,0-7.5-4c-3.9-3.7-11.4-7.9-25.4-7.7c2.2,3.6,3.9,10.1,3.9,12.8
	C-60.9,800.2-65.7,799.4-67.5,799.4z"/>
<path class="ff18 st5" d="M-67.5,884.4c6.1,11.4,1.2,19.5,0,22.8c10.2-0.9,13.2-3.5,16.6-5.8c-1.2,9.3-3.9,17.3-6.5,21.2
	c18.3,0.1,34.5-9.7,38.7-13.4s4.8-4.6,6.2-6.6c1.5-2.1,4.1-2.4,5.8-0.9c2.2,2,5.4-1.1,3-3.4c-1.4-1.4-3.5-2-4.4-2.3
	c1.7-0.4,5.7-1.5,6.5-1.7c2.1-0.6,3.3-5.4-1.2-5.8c-4.6-0.5-5.4,0-12.4-6.7c-6.5-6.1-19-13.2-42.2-12.8c3.7,6,6.4,16.9,6.5,21.2
	C-56.5,885.7-64.5,884.4-67.5,884.4z"/>
<path class="ff19 st2" d="M-67.5,829.4c6.1,11.4,1.2,19.5,0,22.8c10.2-0.9,13.2-3.5,16.6-5.8c-1.2,9.3-3.9,17.3-6.5,21.2
	c18.3,0.1,34.5-9.7,38.7-13.4s4.8-4.6,6.2-6.6c1.5-2.1,4.1-2.4,5.8-0.9c2.2,2,5.4-1.1,3-3.4c-1.4-1.4-3.5-2-4.4-2.3
	c1.7-0.4,5.7-1.5,6.5-1.7c2.1-0.6,3.3-5.4-1.2-5.8c-4.6-0.5-5.4,0-12.4-6.7c-6.5-6.1-19-13.2-42.2-12.8c3.7,6,6.4,16.9,6.5,21.2
	C-56.5,830.8-64.5,829.5-67.5,829.4z"/>
<path class="ff21 st3" d="M-67.5,866.4c4.4,8.2,0.9,14,0,16.4c7.3-0.6,9.5-2.5,11.9-4.2c-0.8,6.7-2.8,12.4-4.7,15.2
	c13.1,0.1,24.8-7,27.8-9.7c3-2.7,3.5-3.3,4.4-4.7c1-1.5,3-1.7,4.2-0.7c1.6,1.4,3.9-0.8,2.2-2.4c-1-1-2.5-1.5-3.2-1.6
	c1.2-0.3,4.1-1,4.7-1.2c1.5-0.4,2.4-3.9-0.8-4.2c-3.3-0.3-3.9,0-8.9-4.8c-4.6-4.4-13.6-9.5-30.3-9.2c2.7,4.3,4.6,12.1,4.7,15.2
	C-59.6,867.3-65.3,866.4-67.5,866.4z"/>
<path class="ff22 st2" d="M-67.5,731.9c4.4,8.2,0.9,14,0,16.4c7.3-0.6,9.5-2.5,11.9-4.2c-0.8,6.7-2.8,12.4-4.7,15.2
	c13.1,0.1,24.8-7,27.8-9.7s3.5-3.3,4.4-4.7c1-1.5,3-1.7,4.2-0.7c1.6,1.4,3.9-0.8,2.2-2.4c-1-1-2.5-1.5-3.2-1.6
	c1.2-0.3,4.1-1,4.7-1.2c1.5-0.4,2.4-3.9-0.8-4.2c-3.3-0.3-3.9,0-8.9-4.8c-4.6-4.4-13.6-9.5-30.3-9.2c2.7,4.3,4.6,12.1,4.7,15.2
	C-59.6,732.8-65.3,731.9-67.5,731.9z"/>
<path class="ff23 st3" d="M-67.5,787.2c4.4,8.2,0.9,14,0,16.4c7.3-0.6,9.5-2.5,11.9-4.2c-0.8,6.7-2.8,12.4-4.7,15.2
	c13.1,0.1,24.8-7,27.8-9.7s3.5-3.3,4.4-4.7c1-1.5,3-1.7,4.2-0.7c1.6,1.4,3.9-0.8,2.2-2.4c-1-1-2.5-1.5-3.2-1.6
	c1.2-0.3,4.1-1,4.7-1.2c1.5-0.4,2.4-3.9-0.8-4.2c-3.3-0.3-3.9,0-8.9-4.8c-4.6-4.4-13.6-9.5-30.3-9.2c2.7,4.3,4.6,12.1,4.7,15.2
	C-59.6,788.2-65.3,787.3-67.5,787.2z"/>
<path class="ff20 st2" d="M-67.5,842.7c4.4,8.2,0.9,14,0,16.4c7.3-0.6,9.5-2.5,11.9-4.2c-0.8,6.7-2.8,12.4-4.7,15.2
	c13.1,0.1,24.8-7,27.8-9.7c3-2.7,3.5-3.3,4.4-4.7c1-1.5,3-1.7,4.2-0.7c1.6,1.4,3.9-0.8,2.2-2.4c-1-1-2.5-1.5-3.2-1.6
	c1.2-0.3,4.1-1,4.7-1.2c1.5-0.4,2.4-3.9-0.8-4.2c-3.3-0.3-3.9,0-8.9-4.8c-4.6-4.4-13.6-9.5-30.3-9.2c2.7,4.3,4.6,12.1,4.7,15.2
	C-59.6,843.7-65.3,842.7-67.5,842.7z"/>
<path class="ff10 st4" d="M-67.5,891.8c4.4,8.2,0.9,14,0,16.4c7.3-0.6,9.5-2.5,11.9-4.2c-0.8,6.7-2.8,12.4-4.7,15.2
	c13.1,0.1,24.8-7,27.8-9.7c3-2.7,3.5-3.3,4.4-4.7c1-1.5,3-1.7,4.2-0.7c1.6,1.4,3.9-0.8,2.2-2.4c-1-1-2.5-1.5-3.2-1.6
	c1.2-0.3,4.1-1,4.7-1.2c1.5-0.4,2.4-3.9-0.8-4.2c-3.3-0.3-3.9,0-8.9-4.8c-4.6-4.4-13.6-9.5-30.3-9.2c2.7,4.3,4.6,12.1,4.7,15.2
	C-59.6,892.8-65.3,891.9-67.5,891.8z"/>
</svg>
