<?xml version="1.0" encoding="utf-8"?>
<svg version="1.1" id="Layer_1" xmlns="http://www.w3.org/2000/svg" xmlns:xlink="http://www.w3.org/1999/xlink" x="0px" y="0px"
	 viewBox="0 0 1600 900" style="enable-background:new 0 0 1600 900;" xml:space="preserve">
<style type="text/css">
	[class^=ff] {
		 animation: swim 40s linear infinite; transform-origin:center;
	}
	.ff1 {animation-delay: 0s;}
	.ff2 {animation-delay: 0.5s;}
	.ff3 {animation-delay: 0.8s;}
	.ff4 {animation-delay: 1.2s;}
	.ff5 {animation-delay: 4.5s;}
	.ff6 {animation-delay: 4s;}
	.ff7 {animation-delay: 4.4s;}
	.ff8 {animation-delay: 4.9s;}
	.ff9 {animation-delay: 5s;}
	.ff10 {animation-delay: 6s;}
	.ff11 {animation-delay: 7s;}
	.ff12 {animation-delay: 7.5s;}
	.ff13 {animation-delay: 8s;}
	.ff14 {animation-delay: 8.2s;}
	.ff15 {animation-delay: 8.6s;}
	.ff16 {animation-delay: 9s;}
	.ff17 {animation-delay: 10s;}
	.ff18 {animation-delay: 11s;}
	.ff19 {animation-delay: 11.4s;}
	.ff20 {animation-delay: 11.9s;}
	.ff21 {animation-delay: 12.5s;}
	.ff22 {animation-delay: 13s;}
	.ff23 {animation-delay: 13.3s;}
	.ff24 {animation-delay: 13.6s;}
	.ff25 {animation-delay: 14s;}
	.ff26 {animation-delay: 14.4s;}
	.ff27 {animation-delay: 15s;}
	.ff28 {animation-delay: 15.2s;}
	
	@keyframes swim {
		0%{opacity: 0; transform: rotate(0deg) translate(-500px, 0);}
		10%{opacity: .8; transform: rotate(-1deg)}
		25%{opacity: 1; transform: rotate(3deg) translate(1000px, 0)}
		50%{opacity: 1; transform: rotate(-3deg) translate(2500px, 0)}
		75%{opacity: 0; transform: rotate(-10deg) translate(3500px, 0)}
		100%{opacity: 0; transform: rotate(0deg); translate(4500px, 0)}
	}
	
	
	[class^=st0] {fill:#FFF; opacity: 0.2; animation: fadeInOut 8s linear infinite; transform-origin:center;}
	.st01 {animation-delay: 0s;}
	.st02 {animation-delay: 1s;}
	.st03 {animation-delay: 8s;}
	.st04 {animation-delay: 0.6s;}
	.st05 {animation-delay: 1s;}
	.st06 {animation-delay: 5s;}
	.st07 {animation-delay: 0.8s;}
	.st08 {animation-delay: 2.5s;}

	@keyframes fadeInOut {
		0% {opacity: 0;transform: scale(.4) translate(-10px, 0)}
		100% {opacity: .2;transform: scale(1) translate(0, -300px)}
	}
	
	
	.st1{opacity:0; fill:#DCD877;}
	.st2{opacity:0; fill:#DCB577;}
	.st3{opacity:0; fill:#DC9C57;}
	.st4{opacity:0; fill:#D0C22B;}
	.st5{opacity:0; fill:#3771B8;}
	.st6{opacity:0; fill:#DF8D26;}
	.st7{opacity:0; fill:#BCB080;}
</style>
<g id="bubbles">
	<circle class="st01" cx="1441.2" cy="872.7" r="24.2"/>
	<circle class="st02" cx="458.4" cy="866.2" r="24.2"/>
	<circle class="st03" cx="93.6" cy="801.3" r="24.2"/>
	<circle class="st04" cx="953.5" cy="734" r="42.3"/>
	<circle class="st05" cx="525.8" cy="706.9" r="24.2"/>
	<circle class="st06" cx="481.2" cy="623.1" r="50"/>
	<circle class="st07" cx="1417" cy="556.1" r="42.3"/>
	<circle class="st08" cx="1198.4" cy="572.7" r="59.8"/>
</g>
<path id="_x32_7" class="ff28 st1" d="M1,548.3c6.1,11.4,1.2,19.5,0,22.8c10.2-0.9,13.2-3.5,16.6-5.8c-1.2,9.3-3.9,17.3-6.5,21.2
	c18.3,0.1,34.5-9.7,38.7-13.4s4.8-4.6,6.2-6.6c1.5-2.1,4.1-2.4,5.8-0.9c2.2,2,5.4-1.1,3-3.4c-1.4-1.4-3.5-2-4.4-2.3
	c1.7-0.4,5.7-1.5,6.5-1.7c2.1-0.6,3.3-5.4-1.2-5.8c-4.6-0.5-5.4,0-12.4-6.7c-6.5-6.1-19-13.2-42.2-12.8c3.7,6,6.4,16.9,6.5,21.2
	C12,549.6,4,548.3,1,548.3z"/>
<path id="_x32_6" class="ff27 st2" d="M1,460.6c4.4,8.2,0.9,14.1,0,16.5c7.4-0.6,9.5-2.5,12-4.2c-0.9,6.7-2.8,12.5-4.7,15.3
	c13.2,0.1,24.9-7,27.9-9.7s3.5-3.3,4.5-4.8c1.1-1.5,3-1.7,4.2-0.6c1.6,1.4,3.9-0.8,2.2-2.5c-1-1-2.5-1.4-3.2-1.7
	c1.2-0.3,4.1-1.1,4.7-1.2c1.5-0.4,2.4-3.9-0.9-4.2c-3.3-0.4-3.9,0-9-4.8c-4.7-4.4-13.7-9.5-30.5-9.2c2.7,4.3,4.6,12.2,4.7,15.3
	C8.9,461.6,3.1,460.6,1,460.6z"/>
<path id="_x32_5" class="ff26 st3" d="M1,540.9c4.4,8.2,0.9,14.1,0,16.5c7.4-0.6,9.5-2.5,12-4.2c-0.9,6.7-2.8,12.5-4.7,15.3
	c13.2,0.1,24.9-7,27.9-9.7s3.5-3.3,4.5-4.8c1.1-1.5,3-1.7,4.2-0.6c1.6,1.4,3.9-0.8,2.2-2.5c-1-1-2.5-1.4-3.2-1.7
	c1.2-0.3,4.1-1.1,4.7-1.2c1.5-0.4,2.4-3.9-0.9-4.2c-3.3-0.4-3.9,0-9-4.8c-4.7-4.4-13.7-9.5-30.5-9.2c2.7,4.3,4.6,12.2,4.7,15.3
	C8.9,541.9,3.1,540.9,1,540.9z"/>
<path id="_x32_4" class="ff25 st1" d="M1,610.9c5,9.4,1,16.1,0,18.9c8.4-0.7,10.9-2.9,13.7-4.8c-1,7.7-3.2,14.3-5.4,17.5
	c15.1,0.1,28.5-8,32-11.1c3.5-3.1,4-3.8,5.1-5.5c1.2-1.7,3.4-2,4.8-0.7c1.8,1.7,4.5-0.9,2.5-2.8c-1.2-1.2-2.9-1.7-3.6-1.9
	c1.4-0.3,4.7-1.2,5.4-1.4c1.7-0.5,2.7-4.5-1-4.8c-3.8-0.4-4.5,0-10.3-5.5c-5.4-5-15.7-10.9-34.9-10.6c3.1,5,5.3,14,5.4,17.5
	C10.1,612,3.4,610.9,1,610.9z"/>
<path id="_x32_3" class="ff24 st4" d="M1,292.8c6.1,11.4,1.2,19.5,0,22.8c10.2-0.9,13.2-3.5,16.6-5.8c-1.2,9.3-3.9,17.3-6.5,21.2
	c18.3,0.1,34.5-9.7,38.7-13.4s4.8-4.6,6.2-6.6c1.5-2.1,4.1-2.4,5.8-0.9c2.2,2,5.4-1.1,3-3.4c-1.4-1.4-3.5-2-4.4-2.3
	c1.7-0.4,5.7-1.5,6.5-1.7c2.1-0.6,3.3-5.4-1.2-5.8c-4.6-0.5-5.4,0-12.4-6.7c-6.5-6.1-19-13.2-42.2-12.8c3.7,6,6.4,16.9,6.5,21.2
	C12,294.1,4,292.8,1,292.8z"/>
<path id="_x32_2" class="ff23 st5" d="M1,334.1c5,9.4,1,16.1,0,18.9c8.4-0.7,10.9-2.9,13.7-4.8c-1,7.7-3.2,14.3-5.4,17.5
	c15.1,0.1,28.5-8,32-11.1c3.5-3.1,4-3.8,5.1-5.5c1.2-1.7,3.4-2,4.8-0.7c1.8,1.7,4.5-0.9,2.5-2.8c-1.2-1.2-2.9-1.7-3.6-1.9
	c1.4-0.3,4.7-1.2,5.4-1.4c1.7-0.5,2.7-4.5-1-4.8c-3.8-0.4-4.5,0-10.3-5.5c-5.4-5-15.7-10.9-34.9-10.6c3.1,5,5.3,14,5.4,17.5
	C10.1,335.1,3.4,334.1,1,334.1z"/>
<path id="_x32_1" class="ff22 st6" d="M1,237.8c6.1,11.4,1.2,19.5,0,22.8c10.2-0.9,13.2-3.5,16.6-5.8c-1.2,9.3-3.9,17.3-6.5,21.2
	c18.3,0.1,34.5-9.7,38.7-13.4s4.8-4.6,6.2-6.6c1.5-2.1,4.1-2.4,5.8-0.9c2.2,2,5.4-1.1,3-3.4c-1.4-1.4-3.5-2-4.4-2.3
	c1.7-0.4,5.7-1.5,6.5-1.7c2.1-0.6,3.3-5.4-1.2-5.8c-4.6-0.5-5.4,0-12.4-6.7c-6.5-6.1-19-13.2-42.2-12.8c3.7,6,6.4,16.9,6.5,21.2
	C12,239.1,4,237.8,1,237.8z"/>
<path id="_x32_0" class="ff21 st5" d="M1,358.8c5,9.4,1,16.1,0,18.8c8.4-0.7,10.9-2.9,13.7-4.8c-1,7.7-3.2,14.3-5.4,17.5
	c15.1,0.1,28.5-8,32-11.1s4-3.8,5.1-5.5c1.2-1.7,3.4-2,4.8-0.7c1.8,1.7,4.5-0.9,2.5-2.8c-1.2-1.2-2.9-1.7-3.6-1.9
	c1.4-0.3,4.7-1.2,5.4-1.4c1.7-0.5,2.7-4.5-1-4.8c-3.8-0.4-4.5,0-10.2-5.5c-5.4-5-15.7-10.9-34.9-10.6c3.1,5,5.3,14,5.4,17.5
	C10,359.9,3.4,358.8,1,358.8z"/>
<path id="_x31_9" class="ff20 st5" d="M1,274.7c4.4,8.2,0.9,14.1,0,16.5c7.4-0.6,9.5-2.5,12-4.2c-0.9,6.7-2.8,12.5-4.7,15.3
	c13.2,0.1,24.9-7,27.9-9.7s3.5-3.3,4.5-4.8c1.1-1.5,3-1.7,4.2-0.6c1.6,1.4,3.9-0.8,2.2-2.5c-1-1-2.5-1.4-3.2-1.7
	c1.2-0.3,4.1-1.1,4.7-1.2c1.5-0.4,2.4-3.9-0.9-4.2c-3.3-0.4-3.9,0-9-4.8c-4.7-4.4-13.7-9.5-30.5-9.2c2.7,4.3,4.6,12.2,4.7,15.3
	C8.9,275.6,3.1,274.7,1,274.7z"/>
<path id="_x31_8" class="f19 st4" d="M1,342.1c8.8,16.5,1.7,28.2,0,33c14.8-1.3,19.1-5.1,24-8.4c-1.7,13.5-5.6,25.1-9.4,30.7
	c26.5,0.1,50-14,56.1-19.4s7-6.7,9-9.6c2.2-3,5.9-3.5,8.4-1.3c3.2,2.9,7.8-1.6,4.3-4.9c-2-2-5.1-2.9-6.4-3.3
	c2.5-0.6,8.3-2.2,9.4-2.5c3-0.9,4.8-7.8-1.7-8.4c-6.7-0.7-7.8,0-18-9.7c-9.4-8.8-27.5-19.1-61.1-18.5c5.4,8.7,9.3,24.5,9.4,30.7
	C16.9,344,5.3,342.1,1,342.1z"/>
<path id="_x31_7" class="ff18 st5" d="M1,224.1C6.6,234.6,2.1,242,1,245c9.3-0.8,12.1-3.2,15.2-5.3c-1.1,8.5-3.6,15.9-6,19.4
	c16.8,0.1,31.6-8.9,35.5-12.3c3.8-3.4,4.4-4.2,5.7-6c1.4-1.9,3.8-2.2,5.3-0.8c2,1.8,4.9-1,2.7-3.1c-1.3-1.3-3.2-1.8-4-2.1
	c1.6-0.4,5.2-1.4,6-1.6c1.9-0.5,3-4.9-1.1-5.3c-4.2-0.5-4.9,0-11.4-6.1c-6-5.6-17.4-12.1-38.7-11.7c3.4,5.5,5.9,15.5,6,19.4
	C11,225.3,3.7,224.1,1,224.1z"/>
<path id="_x31_6" class="ff17 st5" d="M1,435.1c6.1,11.4,1.2,19.5,0,22.8c10.2-0.9,13.2-3.5,16.6-5.8c-1.2,9.3-3.9,17.3-6.5,21.2
	c18.3,0.1,34.5-9.7,38.7-13.4s4.8-4.6,6.2-6.6c1.5-2.1,4.1-2.4,5.8-0.9c2.2,2,5.4-1.1,3-3.4c-1.4-1.4-3.5-2-4.4-2.3
	c1.7-0.4,5.7-1.5,6.5-1.7c2.1-0.6,3.3-5.4-1.2-5.8c-4.6-0.5-5.4,0-12.4-6.7c-6.5-6.1-19-13.2-42.2-12.8c3.7,6,6.4,16.9,6.5,21.2
	C12,436.4,4,435.1,1,435.1z"/>
<path id="_x31_5" class="ff16 st6" d="M1,292.8c6.1,11.4,1.2,19.5,0,22.8c10.2-0.9,13.2-3.5,16.6-5.8c-1.2,9.3-3.9,17.3-6.5,21.2
	c18.3,0.1,34.5-9.7,38.7-13.4s4.8-4.6,6.2-6.6c1.5-2.1,4.1-2.4,5.8-0.9c2.2,2,5.4-1.1,3-3.4c-1.4-1.4-3.5-2-4.4-2.3
	c1.7-0.4,5.7-1.5,6.5-1.7c2.1-0.6,3.3-5.4-1.2-5.8c-4.6-0.5-5.4,0-12.4-6.7c-6.5-6.1-19-13.2-42.2-12.8c3.7,6,6.4,16.9,6.5,21.2
	C12,294.1,4,292.8,1,292.8z"/>
<path id="_x31_4" class="ff15 st5" d="M1,359.9c4.4,8.2,0.9,14.1,0,16.5c7.4-0.6,9.5-2.5,12-4.2c-0.9,6.7-2.8,12.5-4.7,15.3
	c13.2,0.1,24.9-7,27.9-9.7c3-2.7,3.5-3.3,4.5-4.8c1.1-1.5,3-1.7,4.2-0.6c1.6,1.4,3.9-0.8,2.2-2.5c-1-1-2.5-1.4-3.2-1.7
	c1.2-0.3,4.1-1.1,4.7-1.2c1.5-0.4,2.4-3.9-0.9-4.2c-3.3-0.4-3.9,0-9-4.8c-4.7-4.4-13.7-9.5-30.5-9.2c2.7,4.3,4.6,12.2,4.7,15.3
	C8.9,360.9,3.1,359.9,1,359.9z"/>
<path id="_x31_3" class="ff14 st4" d="M1,206.6c3.6,6.8,0.7,11.6,0,13.5c6.1-0.5,7.8-2.1,9.9-3.4c-0.7,5.5-2.3,10.3-3.9,12.6
	c10.9,0.1,20.5-5.8,23-8c2.5-2.2,2.8-2.7,3.7-3.9c0.9-1.2,2.4-1.4,3.4-0.5c1.3,1.2,3.2-0.7,1.8-2c-0.8-0.8-2.1-1.2-2.6-1.4
	c1-0.2,3.4-0.9,3.9-1c1.2-0.4,2-3.2-0.7-3.4c-2.7-0.3-3.2,0-7.4-4c-3.9-3.6-11.3-7.8-25-7.6c2.2,3.6,3.8,10,3.9,12.6
	C7.5,207.4,2.7,206.6,1,206.6z"/>
<path id="_x31_2" class="ff13 st5" d="M1,401.4c4.4,8.2,0.9,14.1,0,16.5c7.4-0.6,9.5-2.5,12-4.2c-0.9,6.7-2.8,12.5-4.7,15.3
	c13.2,0.1,24.9-7,27.9-9.7c3-2.7,3.5-3.3,4.5-4.8c1.1-1.5,3-1.7,4.2-0.6c1.6,1.4,3.9-0.8,2.2-2.5c-1-1-2.5-1.4-3.2-1.7
	c1.2-0.3,4.1-1.1,4.7-1.2c1.5-0.4,2.4-3.9-0.9-4.2c-3.3-0.4-3.9,0-9-4.8C34,395.1,25,390,8.3,390.3c2.7,4.3,4.6,12.2,4.7,15.3
	C8.9,402.3,3.1,401.4,1,401.4z"/>
<path id="_x31_1" class="ff12 st5" d="M1,295.1C6.6,305.5,2.1,313,1,316c9.3-0.8,12.1-3.2,15.2-5.3c-1.1,8.5-3.6,15.9-6,19.4
	c16.8,0.1,31.6-8.9,35.5-12.3c3.8-3.4,4.4-4.2,5.7-6c1.4-1.9,3.8-2.2,5.3-0.8c2,1.8,4.9-1,2.7-3.1c-1.3-1.3-3.2-1.8-4-2.1
	c1.6-0.4,5.2-1.4,6-1.6c1.9-0.5,3-4.9-1.1-5.3c-4.2-0.5-4.9,0-11.4-6.1c-6-5.6-17.4-12.1-38.7-11.7c3.4,5.5,5.9,15.5,6,19.4
	C11,296.3,3.7,295.1,1,295.1z"/>
<path id="_x31_0_1_" class="ff11 st7" d="M1,205.4c5,9.4,1,16,0,18.7c8.4-0.7,10.8-2.9,13.6-4.8c-1,7.6-3.2,14.2-5.3,17.4
	c15,0.1,28.4-8,31.8-11c3.5-3,3.9-3.8,5.1-5.4c1.2-1.7,3.4-2,4.8-0.7c1.8,1.6,4.4-0.9,2.5-2.8c-1.2-1.2-2.9-1.6-3.6-1.9
	c1.4-0.3,4.7-1.2,5.3-1.4c1.7-0.5,2.7-4.4-1-4.8c-3.8-0.4-4.4,0-10.2-5.5c-5.3-5-15.6-10.8-34.7-10.5c3,4.9,5.3,13.9,5.3,17.4
	C10,206.5,3.4,205.4,1,205.4z"/>
<path id="_x39__1_" class="ff10 st6" d="M1,461.9c6.1,11.4,1.2,19.5,0,22.8c10.2-0.9,13.2-3.5,16.6-5.8c-1.2,9.3-3.9,17.3-6.5,21.2
	c18.3,0.1,34.5-9.7,38.7-13.4s4.8-4.6,6.2-6.6c1.5-2.1,4.1-2.4,5.8-0.9c2.2,2,5.4-1.1,3-3.4c-1.4-1.4-3.5-2-4.4-2.3
	c1.7-0.4,5.7-1.5,6.5-1.7c2.1-0.6,3.3-5.4-1.2-5.8c-4.6-0.5-5.4,0-12.4-6.7c-6.5-6.1-19-13.2-42.2-12.8c3.7,6,6.4,16.9,6.5,21.2
	C12,463.2,4,461.9,1,461.9z"/>
<path id="_x38_" class="ff9 st5" d="M1,364.2c6.1,11.4,1.2,19.5,0,22.8c10.2-0.9,13.2-3.5,16.6-5.8c-1.2,9.3-3.9,17.3-6.5,21.2
	c18.3,0.1,34.5-9.7,38.7-13.4s4.8-4.6,6.2-6.6c1.5-2.1,4.1-2.4,5.8-0.9c2.2,2,5.4-1.1,3-3.4c-1.4-1.4-3.5-2-4.4-2.3
	c1.7-0.4,5.7-1.5,6.5-1.7c2.1-0.6,3.3-5.4-1.2-5.8c-4.6-0.5-5.4,0-12.4-6.7c-6.5-6.1-19-13.2-42.2-12.8c3.7,6,6.4,16.9,6.5,21.2
	C12,365.5,4,364.2,1,364.2z"/>
<path id="_x37_" class="ff8 st6" d="M1,140.2c4.4,8.2,0.9,14.1,0,16.5c7.4-0.6,9.5-2.5,12-4.2c-0.9,6.7-2.8,12.5-4.7,15.3
	c13.2,0.1,24.9-7,27.9-9.7c3-2.7,3.5-3.3,4.5-4.8c1.1-1.5,3-1.7,4.2-0.6c1.6,1.4,3.9-0.8,2.2-2.5c-1-1-2.5-1.4-3.2-1.7
	c1.2-0.3,4.1-1.1,4.7-1.2c1.5-0.4,2.4-3.9-0.9-4.2c-3.3-0.4-3.9,0-9-4.8C34,133.9,25,128.8,8.3,129c2.7,4.3,4.6,12.2,4.7,15.3
	C8.9,141.1,3.1,140.2,1,140.2z"/>
<path id="_x36_" class="ff7 st5" d="M1,234.7c5,9.4,1,16,0,18.7c8.4-0.7,10.8-2.9,13.6-4.8c-1,7.6-3.2,14.2-5.3,17.4
	c15,0.1,28.4-8,31.8-11c3.5-3,3.9-3.8,5.1-5.4c1.2-1.7,3.4-2,4.8-0.7c1.8,1.6,4.4-0.9,2.5-2.8c-1.2-1.2-2.9-1.6-3.6-1.9
	c1.4-0.3,4.7-1.2,5.3-1.4c1.7-0.5,2.7-4.4-1-4.8c-3.8-0.4-4.4,0-10.2-5.5c-5.3-5-15.6-10.8-34.7-10.5c3,4.9,5.3,13.9,5.3,17.4
	C10,235.8,3.4,234.7,1,234.7z"/>
<path id="_x35_" class="ff6 st7" d="M1,299.5c4.4,8.2,0.9,14.1,0,16.5c7.4-0.6,9.5-2.5,12-4.2c-0.9,6.7-2.8,12.5-4.7,15.3
	c13.2,0.1,24.9-7,27.9-9.7c3-2.7,3.5-3.3,4.5-4.8c1.1-1.5,3-1.7,4.2-0.6c1.6,1.4,3.9-0.8,2.2-2.5c-1-1-2.5-1.4-3.2-1.7
	c1.2-0.3,4.1-1.1,4.7-1.2c1.5-0.4,2.4-3.9-0.9-4.2c-3.3-0.4-3.9,0-9-4.8c-4.7-4.4-13.7-9.5-30.5-9.2c2.7,4.3,4.6,12.2,4.7,15.3
	C8.9,300.5,3.1,299.5,1,299.5z"/>
<path id="_x34_.5" class="ff5 st4" d="M1,447.8c5,9.4,1,16,0,18.7c8.4-0.7,10.8-2.9,13.6-4.8c-1,7.6-3.2,14.2-5.3,17.4
	c15,0.1,28.4-8,31.8-11c3.5-3,3.9-3.8,5.1-5.4c1.2-1.7,3.4-2,4.8-0.7c1.8,1.6,4.4-0.9,2.5-2.8c-1.2-1.2-2.9-1.6-3.6-1.9
	c1.4-0.3,4.7-1.2,5.3-1.4c1.7-0.5,2.7-4.4-1-4.8c-3.8-0.4-4.4,0-10.2-5.5c-5.3-5-15.6-10.8-34.7-10.5c3,4.9,5.3,13.9,5.3,17.4
	C10,448.9,3.4,447.8,1,447.8z"/>
<path id="_x34_" class="ff4 st5" d="M1,195.5c4.4,8.2,0.9,14.1,0,16.5c7.4-0.6,9.5-2.5,12-4.2c-0.9,6.7-2.8,12.5-4.7,15.3
	c13.2,0.1,24.9-7,27.9-9.7c3-2.7,3.5-3.3,4.5-4.8c1.1-1.5,3-1.7,4.2-0.6c1.6,1.4,3.9-0.8,2.2-2.5c-1-1-2.5-1.4-3.2-1.7
	c1.2-0.3,4.1-1.1,4.7-1.2c1.5-0.4,2.4-3.9-0.9-4.2c-3.3-0.4-3.9,0-9-4.8c-4.7-4.4-13.7-9.5-30.5-9.2c2.7,4.3,4.6,12.2,4.7,15.3
	C8.9,196.5,3.1,195.5,1,195.5z"/>
<path id="_x33__1_" class="ff3 st5" d="M1,247.9c3.6,6.8,0.7,11.6,0,13.5c6.1-0.5,7.8-2.1,9.9-3.4c-0.7,5.5-2.3,10.3-3.9,12.6
	c10.9,0.1,20.5-5.8,23-8s2.8-2.7,3.7-3.9c0.9-1.2,2.4-1.4,3.4-0.5c1.3,1.2,3.2-0.7,1.8-2c-0.8-0.8-2.1-1.2-2.6-1.4
	c1-0.2,3.4-0.9,3.9-1c1.2-0.4,2-3.2-0.7-3.4c-2.7-0.3-3.2,0-7.4-4c-3.9-3.6-11.3-7.8-25-7.6c2.2,3.6,3.8,10,3.9,12.6
	C7.5,248.7,2.7,247.9,1,247.9z"/>
<path id="_x32_" class="ff2 st6" d="M1,251c4.4,8.2,0.9,14.1,0,16.5c7.4-0.6,9.5-2.5,12-4.2c-0.9,6.7-2.8,12.5-4.7,15.3
	c13.2,0.1,24.9-7,27.9-9.7c3-2.7,3.5-3.3,4.5-4.8c1.1-1.5,3-1.7,4.2-0.6c1.6,1.4,3.9-0.8,2.2-2.5c-1-1-2.5-1.4-3.2-1.7
	c1.2-0.3,4.1-1.1,4.7-1.2c1.5-0.4,2.4-3.9-0.9-4.2c-3.3-0.4-3.9,0-9-4.8c-4.7-4.4-13.7-9.5-30.5-9.2c2.7,4.3,4.6,12.2,4.7,15.3
	C8.9,251.9,3.1,251,1,251z"/>
<path id="_x31_" class="ff1 st4" d="M1,208c3.6,6.8,0.7,11.6,0,13.5c6.1-0.5,7.8-2.1,9.9-3.4c-0.7,5.5-2.3,10.3-3.9,12.6
	c10.9,0.1,20.5-5.8,23-8s2.8-2.7,3.7-3.9c0.9-1.2,2.4-1.4,3.4-0.5c1.3,1.2,3.2-0.7,1.8-2c-0.8-0.8-2.1-1.2-2.6-1.4
	c1-0.2,3.4-0.9,3.9-1c1.2-0.4,2-3.2-0.7-3.4c-2.7-0.3-3.2,0-7.4-4c-3.9-3.6-11.3-7.8-25-7.6c2.2,3.6,3.8,10,3.9,12.6
	C7.5,208.8,2.7,208,1,208z"/>
</svg>
